<svg xmlns="http://www.w3.org/2000/svg" width="50" height="30" viewBox="0 0 50 30">
  <path id="Icon_awesome-backspace" data-name="Icon awesome-backspace" d="M45,4.5H16.036A5,5,0,0,0,12.5,5.966L.732,17.732a2.5,2.5,0,0,0,0,3.535L12.5,33.035A5,5,0,0,0,16.035,34.5H45a5,5,0,0,0,5-5V9.5A5,5,0,0,0,45,4.5ZM38.384,24.348a1.25,1.25,0,0,1,0,1.768l-1.767,1.767a1.25,1.25,0,0,1-1.768,0L30,23.035l-4.848,4.848a1.25,1.25,0,0,1-1.768,0l-1.767-1.767a1.25,1.25,0,0,1,0-1.768L26.465,19.5l-4.848-4.848a1.25,1.25,0,0,1,0-1.768l1.767-1.767a1.25,1.25,0,0,1,1.768,0L30,15.965l4.848-4.848a1.25,1.25,0,0,1,1.768,0l1.767,1.767a1.25,1.25,0,0,1,0,1.768L33.535,19.5Z" transform="translate(0 -4.5)" fill="#fad07e"/>
</svg>
