<svg xmlns="http://www.w3.org/2000/svg" width="34.382" height="24.175" viewBox="0 0 34.382 24.175">
  <path id="Icon_awesome-youtube" data-name="Icon awesome-youtube" d="M34.714,8.283a4.32,4.32,0,0,0-3.04-3.059C28.993,4.5,18.241,4.5,18.241,4.5S7.49,4.5,4.808,5.223a4.32,4.32,0,0,0-3.04,3.059,45.32,45.32,0,0,0-.718,8.329,45.32,45.32,0,0,0,.718,8.329,4.256,4.256,0,0,0,3.04,3.011c2.681.723,13.433.723,13.433.723s10.752,0,13.433-.723a4.256,4.256,0,0,0,3.04-3.011,45.32,45.32,0,0,0,.718-8.329,45.32,45.32,0,0,0-.718-8.329ZM14.725,21.724V11.5l8.986,5.112-8.986,5.112Z" transform="translate(-1.05 -4.5)"/>
</svg>
