<svg xmlns="http://www.w3.org/2000/svg" width="98.213" height="160.961" viewBox="0 0 98.213 160.961">
  <g id="Touch_icon" transform="translate(0.309 14.855)">
    <g id="그룹_88" data-name="그룹 88" transform="translate(2.214 7.478)">
      <g id="그룹_89" data-name="그룹 89" transform="translate(-10 -2)">
        <circle id="타원_12" data-name="타원 12" cx="24" cy="24" r="24" transform="translate(20 -20.333)" fill="#fad17f" opacity="0.5"/>
        <circle id="타원_13" data-name="타원 13" cx="12" cy="12" r="12" transform="translate(32 -8.333)" fill="#fad17f"/>
      </g>
      <g id="그룹_90" data-name="그룹 90" opacity="0.9">
        <path id="패스_55" data-name="패스 55" d="M165.106,229.158v-9.926a8.325,8.325,0,1,1,16.635,0V231.5" transform="translate(-122.347 -158.509)" fill="none" stroke="#fff" stroke-linecap="round" stroke-linejoin="round" stroke-width="5"/>
        <path id="패스_56" data-name="패스 56" d="M227.613,238.062v-9.887a8.325,8.325,0,1,1,16.635,0V240.4" transform="translate(-168.219 -165.071)" fill="none" stroke="#fff" stroke-linecap="round" stroke-linejoin="round" stroke-width="5"/>
        <path id="패스_57" data-name="패스 57" d="M290.119,246.965v-9.849a8.325,8.325,0,1,1,16.635,0v12.19" transform="translate(-214.09 -171.634)" fill="none" stroke="#fff" stroke-linecap="round" stroke-linejoin="round" stroke-width="5"/>
        <path id="패스_58" data-name="패스 58" d="M97.106,131.187l.518,25.329c.691,33.825-43.359,43.5-65.64,20.7-5.089-5.207-7.485-10.124-10.64-16.237l-15.691-30.4A8.5,8.5,0,0,1,8.521,118.9a8.473,8.473,0,0,1,11.537,3.352s10.507,18.708,10.507,17.993V76.162a8.325,8.325,0,1,1,16.635,0v48" transform="translate(-4.441 -53.515)" fill="none" stroke="#fff" stroke-width="5"/>
      </g>
    </g>
  </g>
</svg>
