<svg xmlns="http://www.w3.org/2000/svg" width="184.897" height="53" viewBox="0 0 184.897 53">
  <g id="zemeet_logo" transform="translate(-90 0)">
    <g id="그룹_27" data-name="그룹 27" transform="translate(23 0)">
      <g id="그룹_28" data-name="그룹 28" transform="translate(67)">
        <path id="패스_23" data-name="패스 23" d="M22.9,25.442a.86.86,0,1,1-.86-.859.858.858,0,0,1,.86.859" transform="translate(-3.962 -4.599)" fill="#fad07e"/>
        <path id="패스_24" data-name="패스 24" d="M24,6.4,5.506,17.078V38.337H16.642V35.446l6.837-9.738a.633.633,0,0,0-.124-.87l-.6-.477a.652.652,0,0,0-.922.146l-3.409,4.848V30.4a.325.325,0,0,1-.311.341H16.942a.325.325,0,0,1-.3-.341V21.72l-1.834-1.979a.262.262,0,0,1,.186-.445H27.146a4.107,4.107,0,0,1,3.264,1.616c-.021.01-.021.031-.041.051L25.9,27.531v2.01l5.118-7.49a3.786,3.786,0,0,1,.249,1.368v1.222L25.9,32.524V34.6l5.367-7.884v2.134a3.065,3.065,0,0,1-.757,2.01L25.3,38.337h1.471l4.7-6.776a4.18,4.18,0,0,0,.984-2.714V23.419a5.275,5.275,0,0,0-5.273-5.273h-9.7a.5.5,0,0,1-.291-.1l-1.388-1.067a.077.077,0,0,1,.053-.135H26.784a6.848,6.848,0,0,1,6.847,6.848V29.8a3.607,3.607,0,0,1-.828,2.279l-4.382,6.258H42.489V17.078Zm1.348,7.987L24,13.68l-1.346.7.259-1.5-1.088-1.057,1.5-.217L24,10.241l.674,1.368,1.5.217-1.088,1.057Z" transform="translate(-1.03 -1.197)" fill="#fad07e"/>
        <path id="패스_25" data-name="패스 25" d="M7.85,47.152l16.586,9.583,16.586-9.583ZM24.436,53.71l-.673-1.367-1.5-.218,1.088-1.057-.259-1.5,1.347.7,1.347-.7-.259,1.5,1.088,1.057-1.5.218Z" transform="translate(-1.469 -8.821)" fill="#fad07e"/>
        <path id="패스_26" data-name="패스 26" d="M22.947,0,0,13.25v26.5L22.947,53,45.893,39.75V13.25ZM42.858,38.041,22.967,49.53,3.077,38.041V15.073L22.967,3.584,42.858,15.073Z" transform="translate(0 0)" fill="#fad07e"/>
      </g>
      <g id="그룹_26" data-name="그룹 26" transform="translate(67.371 1)">
        <path id="패스_27" data-name="패스 27" d="M68.431,23.917h17.75V20.491H68.431ZM73.157,35.74l.033-.015H68.431v3.443h17.75V35.74Zm6.821-10.507L69.584,34.424h5.083l10.394-9.192Z" transform="translate(-12.802 -3.833)" fill="#fad07e"/>
        <path id="패스_28" data-name="패스 28" d="M113.065,23.917V20.491H96.759V39.167h16.306V35.74H100.024V23.917ZM101.323,31.55h9.208V28.124h-9.208Z" transform="translate(-18.102 -3.833)" fill="#fad07e"/>
        <path id="패스_29" data-name="패스 29" d="M132.634,28.594l-5.456-6.853v5.376l5.456,6.788,5.408-6.788V21.774Zm6.707-8.1v4.986l.016-.016V39.167h3.28V20.491ZM122.63,39.167h3.248V20.491H122.63Z" transform="translate(-22.942 -3.833)" fill="#fad07e"/>
        <path id="패스_30" data-name="패스 30" d="M158.514,31.55h9.208V28.124h-9.208Zm11.742-7.633V20.491H153.935V39.167h16.321V35.741H157.215V23.917Z" transform="translate(-28.798 -3.833)" fill="#fad07e"/>
        <path id="패스_31" data-name="패스 31" d="M196.151,23.917V20.491h-16.3V39.167h16.3V35.74H183.11V23.917ZM184.409,31.55H193.6V28.124h-9.192Z" transform="translate(-33.646 -3.833)" fill="#fad07e"/>
        <path id="패스_32" data-name="패스 32" d="M212.42,39.167h3.265V25.233H212.42Zm-7.243-15.25h17.734V20.491H205.177Z" transform="translate(-38.384 -3.833)" fill="#fad07e"/>
      </g>
    </g>
  </g>
</svg>
